<svg version="1.2" viewBox="0 0 22 22.002"><desc>Created by EvoPdf</desc><g fill="none" fill-rule="evenodd" stroke="#000" stroke-linecap="square" stroke-linejoin="bevel"><path stroke-linecap="round" stroke-linejoin="round" stroke-width="2" d="M1 11v3.45c0 2.849.698 4.005 1.606 4.944.94.909 2.098 1.608 4.946 1.608h6.896c2.848 0 4.006-.7 4.946-1.608C20.302 18.455 21 17.3 21 14.45V7.552c0-2.849-.698-4.006-1.606-4.945C18.454 1.7 17.296 1 14.448 1H7.552c-2.848 0-4.006.699-4.946 1.607C1.698 3.547 1 4.703 1 7.552zM5.545 11.001h10.91M11.003 5.545v10.91"/></g></svg>