<svg version="1.2" viewBox="0 0 22 22"><desc>Created by EvoPdf</desc><g fill="#000" fill-rule="evenodd" stroke="#000" stroke-linecap="square" stroke-linejoin="bevel"><path fill-rule="nonzero" stroke="none" d="M11 1.982c2.937 0 3.285.011 4.445.064a6.1 6.1 0 0 1 2.042.379c.478.176.91.458 1.265.823.365.355.647.787.823 1.265.242.654.37 1.345.379 2.042.053 1.16.064 1.508.064 4.445s-.011 3.285-.064 4.445a6.1 6.1 0 0 1-.379 2.042 3.64 3.64 0 0 1-2.088 2.088 6.1 6.1 0 0 1-2.042.379c-1.16.053-1.508.064-4.445.064s-3.285-.011-4.445-.064a6.1 6.1 0 0 1-2.043-.379 3.4 3.4 0 0 1-1.264-.823 3.4 3.4 0 0 1-.823-1.265 6.1 6.1 0 0 1-.379-2.042c-.053-1.16-.064-1.508-.064-4.445s.011-3.285.064-4.445a6.1 6.1 0 0 1 .379-2.042c.176-.478.458-.91.823-1.265a3.4 3.4 0 0 1 1.265-.823 6.1 6.1 0 0 1 2.042-.379c1.16-.053 1.508-.064 4.445-.064M11 0C8.013 0 7.638.013 6.465.066a8.1 8.1 0 0 0-2.67.511c-.734.276-1.4.71-1.949 1.27A5.4 5.4 0 0 0 .577 3.795a8.1 8.1 0 0 0-.51 2.67C.012 7.638 0 8.013 0 11s.013 3.362.066 4.535c.018.913.191 1.815.511 2.67.276.734.71 1.4 1.27 1.949.55.56 1.214.993 1.948 1.269.855.32 1.758.492 2.67.51C7.638 21.988 8.013 22 11 22s3.362-.013 4.535-.066a8.1 8.1 0 0 0 2.67-.511 5.63 5.63 0 0 0 3.218-3.218c.32-.855.492-1.758.51-2.67.055-1.173.067-1.548.067-4.535s-.013-3.362-.066-4.535a8.1 8.1 0 0 0-.511-2.67 5.4 5.4 0 0 0-1.27-1.949A5.4 5.4 0 0 0 18.205.577a8.1 8.1 0 0 0-2.67-.51C14.362.012 13.987 0 11 0m0 5.351a5.649 5.649 0 1 0 0 11.298 5.649 5.649 0 0 0 0-11.298m0 9.316a3.667 3.667 0 1 1 0-7.334 3.667 3.667 0 0 1 0 7.334m5.872-10.859a1.32 1.32 0 1 0 0 2.64 1.32 1.32 0 0 0 0-2.64"/></g></svg>