<svg version="1.2" viewBox="0 0 23.008 20.195"><desc>Created by EvoPdf</desc><g fill="#000" fill-rule="evenodd" stroke="#000" stroke-linecap="square" stroke-linejoin="bevel"><path fill-rule="nonzero" stroke="none" d="M16.296 2.003a4.99 4.99 0 0 1 4.708 5.218c0 3.072-2.652 4.96-5.197 7.222-2.512 2.243-3.865 3.47-4.303 3.752-.477-.309-2.143-1.823-4.303-3.752-2.556-2.272-5.197-4.177-5.197-7.222a4.99 4.99 0 0 1 4.708-5.218 4.21 4.21 0 0 1 3.675 1.941c.84 1.175.98 1.763 1.12 1.763s.278-.588 1.11-1.766a4.17 4.17 0 0 1 3.68-1.938m0-2a6.04 6.04 0 0 0-4.798 2.127A6.05 6.05 0 0 0 6.712.003 6.985 6.985 0 0 0 .004 7.221c0 3.61 2.55 5.827 5.015 7.97q.427.368.853.747l1.027.918a45 45 0 0 0 3.518 3.018 2 2 0 0 0 2.174 0 45 45 0 0 0 3.626-3.115l.922-.824q.441-.39.885-.774c2.334-2.025 4.98-4.32 4.98-7.94A6.985 6.985 0 0 0 16.296.003"/></g></svg>