<svg version="1.2" viewBox="0 0 22 22.002"><desc>Created by EvoPdf</desc><g fill="none" fill-rule="evenodd" stroke="#000" stroke-linecap="square" stroke-linejoin="bevel"><path stroke-linecap="butt" stroke-linejoin="round" stroke-width="2" d="M1.049 6.002H20.95"/><path stroke-linecap="round" stroke-linejoin="round" stroke-width="2" d="m12.504 1.001 2.858 5.001M6.207 1.11l2.795 4.892M1 11.001v3.449c0 2.849.698 4.006 1.606 4.945.94.908 2.098 1.607 4.946 1.607h6.896c2.848 0 4.006-.699 4.946-1.607.908-.939 1.606-2.096 1.606-4.945V7.552c0-2.848-.698-4.006-1.606-4.945C18.454 1.699 17.296 1 14.448 1H7.552c-2.848 0-4.006.699-4.946 1.607C1.698 3.546 1 4.704 1 7.552z"/><path fill="#000" stroke="none" d="M8.763 16.664a.91.91 0 0 1-.454-.787V10.63a.91.91 0 0 1 1.364-.788l4.545 2.624a.91.91 0 0 1 0 1.575l-4.545 2.624a.91.91 0 0 1-.91 0z"/></g></svg>