<?xml version="1.0" encoding="UTF-8" standalone="no"?><!--Uploaded to: SVG Repo, www.svgrepo.com, Generator: SVG Repo Mixer Tools--><svg fill="currentColor" viewBox="0 0 16 16" id="icon" version="1.1" xmlns:svg="http://www.w3.org/2000/svg"><defs id="defs1"><style id="style1">.cls-1 {
        fill: none;
      }</style></defs><polygon points="20.15,17 14.57,22.573 16,24 24,16 16,8 14.57,9.393 20.15,15 8,15 8,17 " id="polygon1" transform="matrix(-1,0,0,1,24,-8)"/><path d="M 8,22 A 14,14 0 1 1 22,8 14.0158,14.0158 0 0 1 8,22 Z M 8,-4 A 12,12 0 1 0 20,8 12.0137,12.0137 0 0 0 8,-4 Z" id="path1"/><rect id="_Transparent_Rectangle_" data-name="&lt;Transparent Rectangle&gt;" class="cls-1" width="32" height="32" x="-8" y="-8"/></svg>