<svg version="1.2" viewBox="0 0 89.842 68.079"><desc>Created by EvoPdf</desc><g stroke-linecap="square" stroke-linejoin="bevel"><path d="M12.998 19.588h.295c2.754-.197 4.82-2.557 4.721-5.311-.196-2.755-2.557-4.82-5.311-4.722-2.754.099-4.82 2.558-4.722 5.312.099 2.655 2.361 4.721 5.017 4.721m-2.36-7.082c.491-.59 1.278-.984 2.065-.984h.196a3.065 3.065 0 0 1 3.05 3.05 3.065 3.065 0 0 1-3.05 3.049 3.065 3.065 0 0 1-3.049-3.05c0-.786.295-1.475.787-2.065"/><path d="m80.277 14.08-26.263-1.476-.196-2.95c-.296-5.607-5.115-9.935-10.82-9.64L9.654 1.884C4.047 2.177-.281 7.095.014 12.702l1.87 33.442v.787c.688 5.115 5.015 8.951 10.13 8.951h.59l21.345-1.18v.59c-.295 5.607 3.934 10.525 9.639 10.82l33.443 1.967h.59c5.41 0 9.934-4.23 10.23-9.64l1.967-33.442c.393-5.705-3.935-10.525-9.541-10.918M4.047 6.604A8.1 8.1 0 0 1 9.752 3.85l33.443-1.869c4.524-.295 8.459 3.246 8.754 7.77l.196 2.755-5.213-.295c-5.606-.295-10.524 3.934-10.82 9.64l-.59 9.344-9.344 10.524c-.197.295-.59.394-.983.492-.394 0-.689-.098-.984-.393l-7.672-6.886c-1.377-1.278-3.443-1.082-4.721.295L3.85 44.178 2.08 12.703c-.197-2.263.59-4.426 1.967-6.099m8.557 47.214c-4.23.196-7.967-2.755-8.655-6.984l9.246-10.328c.196-.295.59-.393.983-.492.394 0 .689.099.984.394l7.672 6.885c.688.59 1.574.885 2.459.885s1.672-.492 2.262-1.082l7.672-8.656-1.082 18.296zM87.85 24.8l-1.967 33.443c-.295 4.524-4.23 8.065-8.754 7.77l-33.443-1.967c-4.524-.295-8.065-4.23-7.77-8.754l1.967-33.443c.295-4.328 3.836-7.77 8.262-7.77h.492l33.443 1.967c4.623.295 8.065 4.23 7.77 8.754"/><path d="M73.883 36.9 57.26 25.98c-2.065-1.377-4.82-.786-6.098 1.28-.394.688-.689 1.376-.689 2.163l-1.18 19.77c-.098 2.46 1.672 4.525 4.131 4.722h.295c.689 0 1.377-.197 1.967-.492l17.705-8.852a4.41 4.41 0 0 0 1.968-5.902 6.4 6.4 0 0 0-1.476-1.77M72.506 42.8l-17.705 8.853a2.7 2.7 0 0 1-1.279.295c-.393 0-.885-.197-1.18-.394-.688-.492-1.18-1.278-1.082-2.164l1.18-19.77c.099-.885.59-1.672 1.378-2.066.786-.393 1.672-.295 2.459.099l16.426 10.918c1.18.787 1.475 2.262.688 3.344a1.93 1.93 0 0 1-.885.885"/></g></svg>