<?xml version="1.0" encoding="UTF-8" standalone="no"?><svg width="23.770802mm" height="18.012791mm" version="1.2" xmlns:svg="http://www.w3.org/2000/svg"><desc>Created by EvoPdf</desc><defs/><g fill="none" stroke="#000000" stroke-width="1" fill-rule="evenodd" stroke-linecap="square" stroke-linejoin="bevel" transform="translate(-11.034945,-12.502151)"><g fill="#000000" fill-opacity="1" stroke="#000000" stroke-opacity="1" stroke-width="1" stroke-linecap="square" stroke-linejoin="miter" stroke-miterlimit="2"/><g fill="#000000" fill-opacity="1" stroke="#000000" stroke-opacity="1" stroke-width="1" stroke-linecap="square" stroke-linejoin="miter" stroke-miterlimit="2"/><g fill="#000000" fill-opacity="1" stroke="#000000" stroke-opacity="1" stroke-width="1" stroke-linecap="square" stroke-linejoin="miter" stroke-miterlimit="2"/><g fill="#000000" fill-opacity="1" stroke="#000000" stroke-opacity="1" stroke-width="1" stroke-linecap="square" stroke-linejoin="miter" stroke-miterlimit="2"/><g fill="#000000" fill-opacity="1" stroke="#000000" stroke-opacity="1" stroke-width="1" stroke-linecap="square" stroke-linejoin="miter" stroke-miterlimit="2" transform="matrix(0.983607,0,0,0.983607,8,8.4836)"/><g fill="#000000" fill-opacity="1" stroke="none" transform="matrix(0.983607,0,0,0.983607,8,8.4836)"><path vector-effect="none" fill-rule="nonzero" d="m 16.3,24 h 0.3 c 2.8,-0.2 4.9,-2.6 4.8,-5.4 -0.2,-2.8 -2.6,-4.9 -5.4,-4.8 -2.8,0.1 -4.9,2.6 -4.8,5.4 0.1,2.7 2.4,4.8 5.1,4.8 v 0 m -2.4,-7.2 c 0.5,-0.6 1.3,-1 2.1,-1 h 0.2 c 1.7,0 3.1,1.4 3.1,3.1 0,1.7 -1.4,3.1 -3.1,3.1 -1.7,0 -3.1,-1.4 -3.1,-3.1 0,-0.8 0.3,-1.5 0.8,-2.1 v 0"/></g><g fill="#000000" fill-opacity="1" stroke="#000000" stroke-opacity="1" stroke-width="1" stroke-linecap="square" stroke-linejoin="miter" stroke-miterlimit="2" transform="matrix(0.983607,0,0,0.983607,8,8.4836)"/><g fill="#000000" fill-opacity="1" stroke="none" transform="matrix(0.983607,0,0,0.983607,8,8.4836)"><path vector-effect="none" fill-rule="nonzero" d="M 84.7,18.4 58,16.9 57.8,13.9 C 57.5,8.2 52.6,3.8 46.8,4.1 L 12.9,6 C 7.2,6.3 2.8,11.3 3.1,17 L 5,51 v 0.8 c 0.7,5.2 5.1,9.1 10.3,9.1 h 0.6 l 21.7,-1.2 v 0.6 c -0.3,5.7 4,10.7 9.8,11 l 34,2 H 82 c 5.5,0 10.1,-4.3 10.4,-9.8 l 2,-34 c 0.4,-5.8 -4,-10.7 -9.7,-11.1 v 0 M 7.2,10.8 C 8.7,9.1 10.8,8.1 13,8 L 47,6.1 c 4.6,-0.3 8.6,3.3 8.9,7.9 l 0.2,2.8 -5.3,-0.3 c -5.7,-0.3 -10.7,4 -11,9.8 l -0.6,9.5 -9.5,10.7 c -0.2,0.3 -0.6,0.4 -1,0.5 -0.4,0 -0.7,-0.1 -1,-0.4 l -7.8,-7 c -1.4,-1.3 -3.5,-1.1 -4.8,0.3 L 7,49 5.2,17 C 5,14.7 5.8,12.5 7.2,10.8 m 8.7,48 C 11.6,59 7.8,56 7.1,51.7 l 9.4,-10.5 c 0.2,-0.3 0.6,-0.4 1,-0.5 0.4,0 0.7,0.1 1,0.4 l 7.8,7 c 0.7,0.6 1.6,0.9 2.5,0.9 0.9,0 1.7,-0.5 2.3,-1.1 l 7.8,-8.8 -1.1,18.6 -21.9,1.1 v 0 m 76.5,-29.5 -2,34 c -0.3,4.6 -4.3,8.2 -8.9,7.9 l -34,-2 c -4.6,-0.3 -8.2,-4.3 -7.9,-8.9 l 2,-34 c 0.3,-4.4 3.9,-7.9 8.4,-7.9 h 0.5 l 34,2 c 4.7,0.3 8.2,4.3 7.9,8.9 v 0"/></g><g fill="#000000" fill-opacity="1" stroke="#000000" stroke-opacity="1" stroke-width="1" stroke-linecap="square" stroke-linejoin="miter" stroke-miterlimit="2" transform="matrix(0.983607,0,0,0.983607,8,8.4836)"/><g fill="#000000" fill-opacity="1" stroke="none" transform="matrix(0.983607,0,0,0.983607,8,8.4836)"><path vector-effect="none" fill-rule="nonzero" d="M 78.2,41.6 61.3,30.5 c -2.1,-1.4 -4.9,-0.8 -6.2,1.3 -0.4,0.7 -0.7,1.4 -0.7,2.2 l -1.2,20.1 c -0.1,2.5 1.7,4.6 4.2,4.8 h 0.3 c 0.7,0 1.4,-0.2 2,-0.5 l 18,-9 c 2.2,-1.1 3.1,-3.8 2,-6 -0.4,-0.7 -0.9,-1.3 -1.5,-1.8 m -1.4,6 -18,9 c -0.4,0.2 -0.8,0.3 -1.3,0.3 -0.4,0 -0.9,-0.2 -1.2,-0.4 -0.7,-0.5 -1.2,-1.3 -1.1,-2.2 l 1.2,-20.1 c 0.1,-0.9 0.6,-1.7 1.4,-2.1 0.8,-0.4 1.7,-0.3 2.5,0.1 L 77,43.3 c 1.2,0.8 1.5,2.3 0.7,3.4 -0.2,0.4 -0.5,0.7 -0.9,0.9 v 0"/></g><g fill="#000000" fill-opacity="1" stroke="#000000" stroke-opacity="1" stroke-width="1" stroke-linecap="square" stroke-linejoin="miter" stroke-miterlimit="2" transform="matrix(0.983607,0,0,0.983607,8,8.4836)"/><g fill="#000000" fill-opacity="1" stroke="#000000" stroke-opacity="1" stroke-width="1" stroke-linecap="square" stroke-linejoin="miter" stroke-miterlimit="2" transform="matrix(0.983607,0,0,0.983607,8,8.4836)"/><g fill="#000000" fill-opacity="1" stroke="#000000" stroke-opacity="1" stroke-width="1" stroke-linecap="square" stroke-linejoin="miter" stroke-miterlimit="2"/><g fill="#000000" fill-opacity="1" stroke="#000000" stroke-opacity="1" stroke-width="1" stroke-linecap="square" stroke-linejoin="miter" stroke-miterlimit="2"/><g fill="#000000" fill-opacity="1" stroke="#000000" stroke-opacity="1" stroke-width="1" stroke-linecap="square" stroke-linejoin="miter" stroke-miterlimit="2"/><g fill="#000000" fill-opacity="1" stroke="#000000" stroke-opacity="1" stroke-width="1" stroke-linecap="square" stroke-linejoin="miter" stroke-miterlimit="2"/><g fill="#000000" fill-opacity="1" stroke="#000000" stroke-opacity="1" stroke-width="1" stroke-linecap="square" stroke-linejoin="miter" stroke-miterlimit="2" transform="matrix(0.983607,0,0,0.983607,8,8.4836)"/><g fill="#000000" fill-opacity="1" stroke="#000000" stroke-opacity="1" stroke-width="1" stroke-linecap="square" stroke-linejoin="miter" stroke-miterlimit="2"/><g fill="#000000" fill-opacity="1" stroke="#000000" stroke-opacity="1" stroke-width="1" stroke-linecap="square" stroke-linejoin="miter" stroke-miterlimit="2"/><g fill="#000000" fill-opacity="1" stroke="#000000" stroke-opacity="1" stroke-width="1" stroke-linecap="square" stroke-linejoin="miter" stroke-miterlimit="2"/><g fill="#000000" fill-opacity="1" stroke="#000000" stroke-opacity="1" stroke-width="1" stroke-linecap="square" stroke-linejoin="miter" stroke-miterlimit="2"/><g fill="#000000" fill-opacity="1" stroke="#000000" stroke-opacity="1" stroke-width="1" stroke-linecap="square" stroke-linejoin="miter" stroke-miterlimit="2"/><g fill="#000000" fill-opacity="1" stroke="#000000" stroke-opacity="1" stroke-width="1" stroke-linecap="square" stroke-linejoin="miter" stroke-miterlimit="2"/></g></svg>