<?xml version="1.0" encoding="UTF-8" standalone="no"?><svg width="6.0876102mm" height="5.3433266mm" version="1.2" xmlns:svg="http://www.w3.org/2000/svg"><desc>Created by EvoPdf</desc><defs/><g fill="none" stroke="#000000" stroke-width="1" fill-rule="evenodd" stroke-linecap="square" stroke-linejoin="bevel" transform="translate(-8.4958544,-9.9008999)"><g fill="#000000" fill-opacity="1" stroke="#000000" stroke-opacity="1" stroke-width="1" stroke-linecap="square" stroke-linejoin="miter" stroke-miterlimit="2"/><g fill="#000000" fill-opacity="1" stroke="#000000" stroke-opacity="1" stroke-width="1" stroke-linecap="square" stroke-linejoin="miter" stroke-miterlimit="2"/><g fill="#000000" fill-opacity="1" stroke="#000000" stroke-opacity="1" stroke-width="1" stroke-linecap="square" stroke-linejoin="miter" stroke-miterlimit="2"/><g fill="#000000" fill-opacity="1" stroke="#000000" stroke-opacity="1" stroke-width="1" stroke-linecap="square" stroke-linejoin="miter" stroke-miterlimit="2"/><g fill="#000000" fill-opacity="1" stroke="#000000" stroke-opacity="1" stroke-width="1" stroke-linecap="square" stroke-linejoin="miter" stroke-miterlimit="2" transform="translate(8,8)"/><g fill="#000000" fill-opacity="1" stroke="none" transform="translate(8,8)"><path vector-effect="none" fill-rule="nonzero" d="m 16.792,3.904 c 2.736,0.15125 4.838,2.48089 4.708,5.218 0,3.072 -2.652,4.959 -5.197,7.222 C 13.791,18.587 12.438,19.813 12,20.096 11.523,19.787 9.857,18.273 7.697,16.344 5.141,14.072 2.5,12.167 2.5,9.122 2.37004,6.38489 4.47198,4.05525 7.208,3.904 c 1.48124,-0.04489 2.877,0.69229 3.675,1.941 0.84,1.175 0.98,1.763 1.12,1.763 0.14,0 0.278,-0.588 1.11,-1.766 0.7938,-1.25497 2.1951,-1.99313 3.679,-1.938 m 0,-2 C 14.9524,1.8451 13.1864,2.62817 11.995,4.031 10.8047,2.6324 9.04374,1.84994 7.208,1.904 3.36674,2.05421 0.36883,5.28004 0.5,9.122 c 0,3.61 2.55,5.827 5.015,7.97 0.283,0.246 0.569,0.494 0.853,0.747 l 1.027,0.918 c 1.12004,1.0658 2.29426,2.0731 3.518,3.018 0.6614,0.4282 1.5126,0.4282 2.174,0 1.2627,-0.9737 2.473,-2.0135 3.626,-3.115 l 0.922,-0.824 c 0.293,-0.26 0.59,-0.519 0.885,-0.774 2.334,-2.025 4.98,-4.32 4.98,-7.94 0.1312,-3.84196 -2.8667,-7.06779 -6.708,-7.218 v 0"/></g><g fill="#000000" fill-opacity="1" stroke="#000000" stroke-opacity="1" stroke-width="1" stroke-linecap="square" stroke-linejoin="miter" stroke-miterlimit="2" transform="translate(8,8)"/><g fill="#000000" fill-opacity="1" stroke="#000000" stroke-opacity="1" stroke-width="1" stroke-linecap="square" stroke-linejoin="miter" stroke-miterlimit="2" transform="translate(8,8)"/><g fill="#000000" fill-opacity="1" stroke="#000000" stroke-opacity="1" stroke-width="1" stroke-linecap="square" stroke-linejoin="miter" stroke-miterlimit="2"/><g fill="#000000" fill-opacity="1" stroke="#000000" stroke-opacity="1" stroke-width="1" stroke-linecap="square" stroke-linejoin="miter" stroke-miterlimit="2"/><g fill="#000000" fill-opacity="1" stroke="#000000" stroke-opacity="1" stroke-width="1" stroke-linecap="square" stroke-linejoin="miter" stroke-miterlimit="2"/><g fill="#000000" fill-opacity="1" stroke="#000000" stroke-opacity="1" stroke-width="1" stroke-linecap="square" stroke-linejoin="miter" stroke-miterlimit="2"/><g fill="#000000" fill-opacity="1" stroke="#000000" stroke-opacity="1" stroke-width="1" stroke-linecap="square" stroke-linejoin="miter" stroke-miterlimit="2" transform="translate(8,8)"/><g fill="#000000" fill-opacity="1" stroke="#000000" stroke-opacity="1" stroke-width="1" stroke-linecap="square" stroke-linejoin="miter" stroke-miterlimit="2"/><g fill="#000000" fill-opacity="1" stroke="#000000" stroke-opacity="1" stroke-width="1" stroke-linecap="square" stroke-linejoin="miter" stroke-miterlimit="2"/><g fill="#000000" fill-opacity="1" stroke="#000000" stroke-opacity="1" stroke-width="1" stroke-linecap="square" stroke-linejoin="miter" stroke-miterlimit="2"/><g fill="#000000" fill-opacity="1" stroke="#000000" stroke-opacity="1" stroke-width="1" stroke-linecap="square" stroke-linejoin="miter" stroke-miterlimit="2"/><g fill="#000000" fill-opacity="1" stroke="#000000" stroke-opacity="1" stroke-width="1" stroke-linecap="square" stroke-linejoin="miter" stroke-miterlimit="2"/><g fill="#000000" fill-opacity="1" stroke="#000000" stroke-opacity="1" stroke-width="1" stroke-linecap="square" stroke-linejoin="miter" stroke-miterlimit="2"/></g></svg>