<?xml version="1.0" encoding="UTF-8" standalone="no"?><svg width="5.8208332mm" height="5.8213625mm" version="1.2" xmlns:svg="http://www.w3.org/2000/svg"><desc>Created by EvoPdf</desc><defs/><g fill="none" stroke="#000000" stroke-width="1" fill-rule="evenodd" stroke-linecap="square" stroke-linejoin="bevel" transform="translate(-9,-9)"><g fill="#000000" fill-opacity="1" stroke="#000000" stroke-opacity="1" stroke-width="1" stroke-linecap="square" stroke-linejoin="miter" stroke-miterlimit="2"/><g fill="#000000" fill-opacity="1" stroke="#000000" stroke-opacity="1" stroke-width="1" stroke-linecap="square" stroke-linejoin="miter" stroke-miterlimit="2"/><g fill="#000000" fill-opacity="1" stroke="#000000" stroke-opacity="1" stroke-width="1" stroke-linecap="square" stroke-linejoin="miter" stroke-miterlimit="2"/><g fill="#000000" fill-opacity="1" stroke="#000000" stroke-opacity="1" stroke-width="1" stroke-linecap="square" stroke-linejoin="miter" stroke-miterlimit="2"/><g fill="#000000" fill-opacity="1" stroke="#000000" stroke-opacity="1" stroke-width="1" stroke-linecap="square" stroke-linejoin="miter" stroke-miterlimit="2" transform="translate(8,8)"/><g fill="none" stroke="#000000" stroke-opacity="1" stroke-width="2" stroke-linecap="butt" stroke-linejoin="round" transform="translate(8,8)"><path vector-effect="none" fill-rule="nonzero" d="M 2.049,7.002 H 21.95"/></g><g fill="#000000" fill-opacity="1" stroke="#000000" stroke-opacity="1" stroke-width="1" stroke-linecap="square" stroke-linejoin="miter" stroke-miterlimit="2" transform="translate(8,8)"/><g fill="none" stroke="#000000" stroke-opacity="1" stroke-width="2" stroke-linecap="round" stroke-linejoin="round" transform="translate(8,8)"><path vector-effect="none" fill-rule="nonzero" d="m 13.504,2.001 2.858,5.001"/></g><g fill="#000000" fill-opacity="1" stroke="#000000" stroke-opacity="1" stroke-width="1" stroke-linecap="square" stroke-linejoin="miter" stroke-miterlimit="2" transform="translate(8,8)"/><g fill="none" stroke="#000000" stroke-opacity="1" stroke-width="2" stroke-linecap="round" stroke-linejoin="round" transform="translate(8,8)"><path vector-effect="none" fill-rule="nonzero" d="m 7.207,2.11 2.795,4.892"/></g><g fill="#000000" fill-opacity="1" stroke="#000000" stroke-opacity="1" stroke-width="1" stroke-linecap="square" stroke-linejoin="miter" stroke-miterlimit="2" transform="translate(8,8)"/><g fill="none" stroke="#000000" stroke-opacity="1" stroke-width="2" stroke-linecap="round" stroke-linejoin="round" transform="translate(8,8)"><path vector-effect="none" fill-rule="nonzero" d="m 2,12.001 v 3.449 c 0,2.849 0.698,4.006 1.606,4.945 0.94,0.908 2.098,1.607 4.946,1.607 h 6.896 c 2.848,0 4.006,-0.699 4.946,-1.607 C 21.302,19.456 22,18.299 22,15.45 V 8.552 C 22,5.704 21.302,4.546 20.394,3.607 19.454,2.699 18.296,2 15.448,2 H 8.552 C 5.704,2 4.546,2.699 3.606,3.607 2.698,4.546 2,5.704 2,8.552 v 3.449"/></g><g fill="#000000" fill-opacity="1" stroke="#000000" stroke-opacity="1" stroke-width="1" stroke-linecap="square" stroke-linejoin="miter" stroke-miterlimit="2" transform="translate(8,8)"/><g fill="#000000" fill-opacity="1" stroke="none" transform="translate(8,8)"><path vector-effect="none" fill-rule="evenodd" d="M 9.763,17.664 C 9.48186,17.5017 9.30877,17.2016 9.309,16.877 V 11.63 c -3.8e-4,-0.325 0.17283,-0.6256 0.45429,-0.7882 0.28141,-0.1626 0.62831,-0.1625 0.90971,2e-4 l 4.545,2.624 c 0.2815,0.1623 0.455,0.4625 0.455,0.7875 0,0.325 -0.1735,0.6252 -0.455,0.7875 l -4.545,2.624 c -0.2816,0.1626 -0.6284,0.1626 -0.91,0 v -10e-4"/></g><g fill="#000000" fill-opacity="1" stroke="#000000" stroke-opacity="1" stroke-width="1" stroke-linecap="square" stroke-linejoin="miter" stroke-miterlimit="2" transform="translate(8,8)"/><g fill="#000000" fill-opacity="1" stroke="#000000" stroke-opacity="1" stroke-width="1" stroke-linecap="square" stroke-linejoin="miter" stroke-miterlimit="2" transform="translate(8,8)"/><g fill="#000000" fill-opacity="1" stroke="#000000" stroke-opacity="1" stroke-width="1" stroke-linecap="square" stroke-linejoin="miter" stroke-miterlimit="2"/><g fill="#000000" fill-opacity="1" stroke="#000000" stroke-opacity="1" stroke-width="1" stroke-linecap="square" stroke-linejoin="miter" stroke-miterlimit="2"/><g fill="#000000" fill-opacity="1" stroke="#000000" stroke-opacity="1" stroke-width="1" stroke-linecap="square" stroke-linejoin="miter" stroke-miterlimit="2"/><g fill="#000000" fill-opacity="1" stroke="#000000" stroke-opacity="1" stroke-width="1" stroke-linecap="square" stroke-linejoin="miter" stroke-miterlimit="2"/><g fill="#000000" fill-opacity="1" stroke="#000000" stroke-opacity="1" stroke-width="1" stroke-linecap="square" stroke-linejoin="miter" stroke-miterlimit="2" transform="translate(8,8)"/><g fill="#000000" fill-opacity="1" stroke="#000000" stroke-opacity="1" stroke-width="1" stroke-linecap="square" stroke-linejoin="miter" stroke-miterlimit="2"/><g fill="#000000" fill-opacity="1" stroke="#000000" stroke-opacity="1" stroke-width="1" stroke-linecap="square" stroke-linejoin="miter" stroke-miterlimit="2"/><g fill="#000000" fill-opacity="1" stroke="#000000" stroke-opacity="1" stroke-width="1" stroke-linecap="square" stroke-linejoin="miter" stroke-miterlimit="2"/><g fill="#000000" fill-opacity="1" stroke="#000000" stroke-opacity="1" stroke-width="1" stroke-linecap="square" stroke-linejoin="miter" stroke-miterlimit="2"/><g fill="#000000" fill-opacity="1" stroke="#000000" stroke-opacity="1" stroke-width="1" stroke-linecap="square" stroke-linejoin="miter" stroke-miterlimit="2"/><g fill="#000000" fill-opacity="1" stroke="#000000" stroke-opacity="1" stroke-width="1" stroke-linecap="square" stroke-linejoin="miter" stroke-miterlimit="2"/></g></svg>