<?xml version="1.0" standalone="no"?>
<!DOCTYPE svg PUBLIC "-//W3C//DTD SVG 20010904//EN"
 "http://www.w3.org/TR/2001/REC-SVG-20010904/DTD/svg10.dtd">
<svg version="1.0" xmlns="http://www.w3.org/2000/svg"
 width="184.000000pt" height="30.000000pt" viewBox="0 0 184.000000 30.000000"
 preserveAspectRatio="xMidYMid meet">
<metadata>
Created by potrace 1.10, written by Peter Selinger 2001-2011
</metadata>
<g transform="translate(0.000000,30.000000) scale(0.100000,-0.100000)"
fill="#000000" stroke="none">
<path d="M256 217 c-15 -11 -16 -15 -3 -25 11 -10 17 -9 25 1 17 20 0 40 -22
24z"/>
<path d="M76 198 c-8 -13 -19 -43 -25 -68 -6 -26 -19 -51 -30 -59 -12 -7 -21
-16 -21 -20 0 -9 133 -7 148 2 6 5 12 16 12 25 0 12 -3 13 -12 4 -15 -15 -64
-16 -73 -2 -4 6 -2 16 3 23 6 7 13 29 17 50 8 41 21 55 37 39 16 -16 41 -3 27
14 -18 22 -66 17 -83 -8z"/>
<path d="M724 196 c-8 -14 -23 -27 -32 -29 -14 -4 -13 -5 2 -6 18 -1 17 -4 -9
-31 -26 -28 -24 -45 3 -18 8 8 10 3 5 -25 -4 -28 -2 -38 11 -43 18 -7 66 20
66 38 0 9 -3 9 -12 0 -22 -22 -39 -14 -32 16 13 59 15 62 44 62 16 0 32 5 36
12 5 8 -2 9 -25 5 -29 -6 -31 -5 -25 18 8 32 -11 33 -32 1z"/>
<path d="M354 151 c-22 -15 -48 -40 -57 -55 -10 -14 -24 -26 -32 -26 -16 0
-14 23 6 78 6 16 5 22 -6 22 -17 0 -85 -58 -85 -73 0 -6 11 0 25 13 l25 24 -6
-47 c-6 -44 -5 -47 16 -47 14 0 41 19 71 50 53 55 57 54 34 -9 -8 -22 -12 -41
-9 -41 15 0 44 23 44 35 0 17 46 72 54 64 3 -3 1 -20 -5 -38 -12 -35 -6 -61
14 -61 17 0 70 40 63 48 -3 2 -12 -1 -21 -8 -23 -19 -30 -5 -17 37 6 20 9 40
6 45 -9 15 -37 8 -62 -14 l-24 -23 7 28 c4 15 5 27 3 27 -3 0 -23 -13 -44 -29z"/>
<path d="M911 170 c-51 -8 -91 -48 -91 -93 0 -35 23 -44 55 -23 29 19 35 42 5
24 -10 -7 -22 -9 -26 -5 -10 10 16 66 37 77 20 11 35 -3 23 -21 -4 -7 -8 -27
-10 -46 -3 -41 16 -52 51 -29 29 19 35 42 5 24 -30 -19 -33 -5 -11 51 10 28
16 50 13 50 -4 -1 -27 -5 -51 -9z"/>
<path d="M1091 170 c-30 -4 -52 -16 -68 -34 -46 -54 -16 -107 38 -67 26 19 27
19 22 1 -3 -11 -20 -24 -38 -30 -39 -13 -67 -40 -42 -40 9 0 19 4 22 10 3 5
15 15 27 21 18 9 19 8 13 -10 -9 -31 10 -26 35 8 11 17 29 33 40 36 11 4 20
15 20 26 0 25 -16 25 -23 -1 -3 -11 -10 -20 -15 -20 -11 0 -5 27 17 83 6 15 7
26 3 26 -4 -1 -27 -5 -51 -9z m-5 -55 c-17 -26 -42 -42 -52 -32 -8 8 23 64 38
70 24 9 31 -12 14 -38z"/>
<path d="M1245 168 c-29 -15 -75 -60 -75 -72 0 -5 14 3 30 19 35 33 35 32 15
-25 -17 -47 -16 -53 8 -44 16 6 28 31 33 71 1 11 5 30 9 42 7 24 7 24 -20 9z"/>
<path d="M1476 170 c-51 -10 -99 -60 -94 -98 4 -35 33 -40 64 -11 l24 22 0
-21 c0 -35 32 -27 86 22 27 25 50 43 52 41 2 -2 -2 -19 -9 -39 -7 -20 -9 -39
-5 -43 9 -9 46 33 46 52 0 15 38 50 46 42 4 -3 -1 -27 -10 -52 -14 -42 -14
-46 0 -41 9 3 17 6 19 6 2 0 13 20 25 45 12 25 29 45 37 45 10 0 13 -6 8 -17
-17 -45 -17 -73 -1 -79 18 -7 66 20 66 38 0 9 -3 9 -12 0 -24 -24 -37 -14 -27
20 5 18 9 41 9 50 0 25 -35 23 -60 -4 l-20 -22 0 22 c0 29 -27 29 -58 0 l-24
-23 8 29 c6 26 5 27 -14 17 -11 -6 -42 -31 -68 -56 -27 -25 -52 -45 -56 -45
-12 0 -9 28 7 67 8 19 15 37 15 39 0 5 -1 4 -54 -6z m4 -34 c0 -17 -38 -66
-51 -66 -16 0 -10 37 12 64 20 26 39 27 39 2z"/>
<path d="M570 155 c-10 -12 -10 -19 -2 -27 9 -9 3 -18 -23 -35 -19 -13 -35
-29 -35 -35 0 -9 3 -9 11 -1 9 9 15 8 26 -3 29 -29 93 -9 93 29 0 13 -5 28
-12 35 -9 9 -9 15 0 24 7 7 12 16 12 20 0 14 -57 8 -70 -7z m38 -73 c3 -16 -2
-22 -17 -22 -26 0 -36 17 -20 36 16 19 33 13 37 -14z"/>
<path d="M1282 157 c-5 -7 -13 -19 -17 -27 -8 -13 -6 -13 7 -2 9 7 27 10 40 7
16 -4 29 0 41 13 17 19 17 20 -22 20 -22 0 -44 -5 -49 -11z"/>
</g>
</svg>
