<?xml version="1.0" encoding="UTF-8" standalone="no"?>
<!-- Uploaded to: SVG Repo, www.svgrepo.com, Generator: SVG Repo Mixer Tools -->

<svg
   viewBox="0 0 32 32"
   version="1.1"
   id="svg1"
   xmlns="http://www.w3.org/2000/svg"
   xmlns:svg="http://www.w3.org/2000/svg"
   xmlns:sketch="http://www.bohemiancoding.com/sketch/ns">
  <title
     id="title1">image-picture</title>
  <desc
     id="desc1">Created with Sketch Beta.</desc>
  <defs
     id="defs1" />
  <g
     id="Page-1"
     stroke="none"
     stroke-width="1"
     fill="none"
     fill-rule="evenodd"
     sketch:type="MSPage">
    <g
       id="Icon-Set"
       sketch:type="MSLayerGroup"
       transform="translate(-360,-99)"
       fill="currentColor">
      <path
         d="m 368,109 c -1.104,0 -2,-0.896 -2,-2 0,-1.104 0.896,-2 2,-2 1.104,0 2,0.896 2,2 0,1.104 -0.896,2 -2,2 z m 0,-6 c -2.209,0 -4,1.791 -4,4 0,2.209 1.791,4 4,4 2.209,0 4,-1.791 4,-4 0,-2.209 -1.791,-4 -4,-4 z M 390,116.128 384,110 374.059,120.111 370,116 l -8,7.337 V 103 c 0,-1.104 0.896,-2 2,-2 h 24 c 1.104,0 2,0.896 2,2 z M 390,127 c 0,1.104 -0.896,2 -2,2 h -5.168 l -7.368,-7.465 8.536,-8.536 6,6 z m -26,2 c -1.104,0 -2,-0.896 -2,-2 v -0.939 l 7.945,-7.116 10.056,10.055 z m 24,-30 h -24 c -2.209,0 -4,1.791 -4,4 v 24 c 0,2.209 1.791,4 4,4 h 24 c 2.209,0 4,-1.791 4,-4 v -24 c 0,-2.209 -1.791,-4 -4,-4 z"
         id="image-picture"
         sketch:type="MSShapeGroup" />
    </g>
  </g>
</svg>
