<?xml version="1.0" encoding="UTF-8" standalone="no"?>
<svg
   width="5.8208332mm"
   height="5.8208332mm"
   version="1.2"
   id="svg20"
   xmlns="http://www.w3.org/2000/svg"
   xmlns:svg="http://www.w3.org/2000/svg">
  <desc
     id="desc1">Created by EvoPdf</desc>
  <defs
     id="defs1" />
  <g
     fill="none"
     stroke="#000000"
     stroke-width="1"
     fill-rule="evenodd"
     stroke-linecap="square"
     stroke-linejoin="bevel"
     id="g20"
     transform="translate(-9,-9)">
    <g
       fill="#000000"
       fill-opacity="1"
       stroke="#000000"
       stroke-opacity="1"
       stroke-width="1"
       stroke-linecap="square"
       stroke-linejoin="miter"
       stroke-miterlimit="2"
       id="g1" />
    <g
       fill="#000000"
       fill-opacity="1"
       stroke="#000000"
       stroke-opacity="1"
       stroke-width="1"
       stroke-linecap="square"
       stroke-linejoin="miter"
       stroke-miterlimit="2"
       id="g2" />
    <g
       fill="#000000"
       fill-opacity="1"
       stroke="#000000"
       stroke-opacity="1"
       stroke-width="1"
       stroke-linecap="square"
       stroke-linejoin="miter"
       stroke-miterlimit="2"
       id="g3" />
    <g
       fill="#000000"
       fill-opacity="1"
       stroke="#000000"
       stroke-opacity="1"
       stroke-width="1"
       stroke-linecap="square"
       stroke-linejoin="miter"
       stroke-miterlimit="2"
       id="g4" />
    <g
       fill="#000000"
       fill-opacity="1"
       stroke="#000000"
       stroke-opacity="1"
       stroke-width="1"
       stroke-linecap="square"
       stroke-linejoin="miter"
       stroke-miterlimit="2"
       transform="translate(8,8)"
       id="g5" />
    <g
       fill="#000000"
       fill-opacity="1"
       stroke="none"
       transform="translate(8,8)"
       id="g6">
      <path
         vector-effect="none"
         fill-rule="nonzero"
         d="m 12,2.982 c 2.937,0 3.285,0.011 4.445,0.064 0.6974,0.00842 1.3881,0.13662 2.042,0.379 0.4779,0.17635 0.9101,0.45758 1.265,0.823 0.3654,0.35486 0.6466,0.78713 0.823,1.265 0.2424,0.65393 0.3706,1.34465 0.379,2.042 0.053,1.16 0.064,1.508 0.064,4.445 0,2.937 -0.011,3.285 -0.064,4.445 -0.0084,0.6974 -0.1366,1.3881 -0.379,2.042 -0.3701,0.9595 -1.1285,1.7179 -2.088,2.088 -0.6539,0.2424 -1.3446,0.3706 -2.042,0.379 -1.16,0.053 -1.508,0.064 -4.445,0.064 -2.937,0 -3.285,-0.011 -4.445,-0.064 C 6.85731,20.9457 6.16624,20.8175 5.512,20.575 5.03449,20.3985 4.60257,20.1173 4.248,19.752 3.88258,19.3971 3.60135,18.9649 3.425,18.487 3.18262,17.8331 3.05442,17.1424 3.046,16.445 2.993,15.285 2.982,14.937 2.982,12 2.982,9.063 2.993,8.715 3.046,7.555 3.05442,6.85765 3.18262,6.16693 3.425,5.513 3.60135,5.03513 3.88258,4.60286 4.248,4.248 4.60286,3.88258 5.03513,3.60135 5.513,3.425 6.16693,3.18262 6.85765,3.05442 7.555,3.046 8.715,2.993 9.063,2.982 12,2.982 M 12,1 C 9.013,1 8.638,1.013 7.465,1.066 6.55252,1.0842 5.64972,1.25699 4.795,1.577 4.06066,1.85348 3.39552,2.2869 2.846,2.847 2.28638,3.39633 1.85331,4.06111 1.577,4.795 1.25733,5.64978 1.08488,6.55257 1.067,7.465 1.012,8.638 1,9.013 1,12 c 0,2.987 0.013,3.362 0.066,4.535 0.0182,0.9125 0.19099,1.8153 0.511,2.67 0.27648,0.7343 0.7099,1.3995 1.27,1.949 0.54933,0.5596 1.21411,0.9927 1.948,1.269 0.85478,0.3197 1.75757,0.4921 2.67,0.51 C 8.638,22.988 9.013,23 12,23 c 2.987,0 3.362,-0.013 4.535,-0.066 0.9125,-0.0182 1.8153,-0.191 2.67,-0.511 1.4781,-0.5715 2.6465,-1.7399 3.218,-3.218 0.3197,-0.8548 0.4921,-1.7576 0.51,-2.67 C 22.988,15.362 23,14.987 23,12 23,9.013 22.987,8.638 22.934,7.465 22.9158,6.55252 22.743,5.64972 22.423,4.795 22.1465,4.06066 21.7131,3.39552 21.153,2.846 20.6037,2.28638 19.9389,1.85331 19.205,1.577 18.3502,1.25733 17.4474,1.08488 16.535,1.067 15.362,1.012 14.987,1 12,1 m 0,5.351 c -3.11986,0 -5.649,2.52914 -5.649,5.649 0,3.1199 2.52914,5.649 5.649,5.649 3.1199,0 5.649,-2.5291 5.649,-5.649 0,-3.11986 -2.5291,-5.649 -5.649,-5.649 m 0,9.316 C 9.97477,15.667 8.333,14.0252 8.333,12 8.333,9.97477 9.97477,8.333 12,8.333 c 2.0252,0 3.667,1.64177 3.667,3.667 0,2.0252 -1.6418,3.667 -3.667,3.667 v 0 M 17.872,4.808 c -0.729,0 -1.32,0.59098 -1.32,1.32 0,0.72902 0.591,1.32 1.32,1.32 0.729,0 1.32,-0.59098 1.32,-1.32 0,-0.72902 -0.591,-1.32 -1.32,-1.32 v 0"
         id="path5" />
    </g>
    <g
       fill="#000000"
       fill-opacity="1"
       stroke="#000000"
       stroke-opacity="1"
       stroke-width="1"
       stroke-linecap="square"
       stroke-linejoin="miter"
       stroke-miterlimit="2"
       transform="translate(8,8)"
       id="g7" />
    <g
       fill="#000000"
       fill-opacity="1"
       stroke="#000000"
       stroke-opacity="1"
       stroke-width="1"
       stroke-linecap="square"
       stroke-linejoin="miter"
       stroke-miterlimit="2"
       transform="translate(8,8)"
       id="g8" />
    <g
       fill="#000000"
       fill-opacity="1"
       stroke="#000000"
       stroke-opacity="1"
       stroke-width="1"
       stroke-linecap="square"
       stroke-linejoin="miter"
       stroke-miterlimit="2"
       id="g9" />
    <g
       fill="#000000"
       fill-opacity="1"
       stroke="#000000"
       stroke-opacity="1"
       stroke-width="1"
       stroke-linecap="square"
       stroke-linejoin="miter"
       stroke-miterlimit="2"
       id="g10" />
    <g
       fill="#000000"
       fill-opacity="1"
       stroke="#000000"
       stroke-opacity="1"
       stroke-width="1"
       stroke-linecap="square"
       stroke-linejoin="miter"
       stroke-miterlimit="2"
       id="g11" />
    <g
       fill="#000000"
       fill-opacity="1"
       stroke="#000000"
       stroke-opacity="1"
       stroke-width="1"
       stroke-linecap="square"
       stroke-linejoin="miter"
       stroke-miterlimit="2"
       id="g12" />
    <g
       fill="#000000"
       fill-opacity="1"
       stroke="#000000"
       stroke-opacity="1"
       stroke-width="1"
       stroke-linecap="square"
       stroke-linejoin="miter"
       stroke-miterlimit="2"
       transform="translate(8,8)"
       id="g13" />
    <g
       fill="#000000"
       fill-opacity="1"
       stroke="#000000"
       stroke-opacity="1"
       stroke-width="1"
       stroke-linecap="square"
       stroke-linejoin="miter"
       stroke-miterlimit="2"
       id="g14" />
    <g
       fill="#000000"
       fill-opacity="1"
       stroke="#000000"
       stroke-opacity="1"
       stroke-width="1"
       stroke-linecap="square"
       stroke-linejoin="miter"
       stroke-miterlimit="2"
       id="g15" />
    <g
       fill="#000000"
       fill-opacity="1"
       stroke="#000000"
       stroke-opacity="1"
       stroke-width="1"
       stroke-linecap="square"
       stroke-linejoin="miter"
       stroke-miterlimit="2"
       id="g16" />
    <g
       fill="#000000"
       fill-opacity="1"
       stroke="#000000"
       stroke-opacity="1"
       stroke-width="1"
       stroke-linecap="square"
       stroke-linejoin="miter"
       stroke-miterlimit="2"
       id="g17" />
    <g
       fill="#000000"
       fill-opacity="1"
       stroke="#000000"
       stroke-opacity="1"
       stroke-width="1"
       stroke-linecap="square"
       stroke-linejoin="miter"
       stroke-miterlimit="2"
       id="g18" />
    <g
       fill="#000000"
       fill-opacity="1"
       stroke="#000000"
       stroke-opacity="1"
       stroke-width="1"
       stroke-linecap="square"
       stroke-linejoin="miter"
       stroke-miterlimit="2"
       id="g19" />
  </g>
</svg>
